<mxfile host="app.diagrams.net" agent="Mozilla/5.0 (Windows NT 10.0; Win64; x64; rv:134.0) Gecko/20100101 Firefox/134.0" version="26.0.10">
  <diagram name="Page-1" id="HdeGhgt8E5nmda2lHKkO">
    <mxGraphModel dx="3774" dy="1106" grid="1" gridSize="10" guides="1" tooltips="1" connect="1" arrows="1" fold="1" page="1" pageScale="1" pageWidth="850" pageHeight="1100" math="0" shadow="0">
      <root>
        <mxCell id="0" />
        <mxCell id="1" parent="0" />
        <mxCell id="YZ6fPwx433-cgclNYjWM-49" value="" style="rounded=0;whiteSpace=wrap;html=1;dashed=1;dashPattern=8 8;fillColor=none;" parent="1" vertex="1">
          <mxGeometry x="-829" y="680" width="679" height="160" as="geometry" />
        </mxCell>
        <mxCell id="YZ6fPwx433-cgclNYjWM-39" value="&lt;div&gt;IMBOR&lt;/div&gt;&lt;div&gt;Ontologie&lt;br&gt;&lt;/div&gt;" style="ellipse;shape=cloud;whiteSpace=wrap;html=1;" parent="1" vertex="1">
          <mxGeometry x="-741" y="300" width="120" height="80" as="geometry" />
        </mxCell>
        <mxCell id="YZ6fPwx433-cgclNYjWM-40" value="&lt;div&gt;NLCS&lt;/div&gt;" style="ellipse;shape=cloud;whiteSpace=wrap;html=1;" parent="1" vertex="1">
          <mxGeometry x="-870" y="300" width="120" height="80" as="geometry" />
        </mxCell>
        <mxCell id="YZ6fPwx433-cgclNYjWM-42" style="edgeStyle=orthogonalEdgeStyle;rounded=0;orthogonalLoop=1;jettySize=auto;html=1;exitX=1;exitY=0.5;exitDx=0;exitDy=0;entryX=0;entryY=0.5;entryDx=0;entryDy=0;" parent="1" source="YZ6fPwx433-cgclNYjWM-44" target="YZ6fPwx433-cgclNYjWM-45" edge="1">
          <mxGeometry relative="1" as="geometry" />
        </mxCell>
        <mxCell id="YZ6fPwx433-cgclNYjWM-43" value="nen2660:hasPart" style="edgeLabel;html=1;align=center;verticalAlign=middle;resizable=0;points=[];" parent="YZ6fPwx433-cgclNYjWM-42" vertex="1" connectable="0">
          <mxGeometry x="-0.2522" y="-8" relative="1" as="geometry">
            <mxPoint x="12" y="-18" as="offset" />
          </mxGeometry>
        </mxCell>
        <mxCell id="YZ6fPwx433-cgclNYjWM-44" value="&lt;div&gt;Achtergrondschild&lt;/div&gt;" style="rounded=0;whiteSpace=wrap;html=1;" parent="1" vertex="1">
          <mxGeometry x="-528" y="733" width="120" height="60" as="geometry" />
        </mxCell>
        <mxCell id="YZ6fPwx433-cgclNYjWM-45" value="Icoon" style="rounded=0;whiteSpace=wrap;html=1;" parent="1" vertex="1">
          <mxGeometry x="-298" y="733" width="120" height="60" as="geometry" />
        </mxCell>
        <mxCell id="YZ6fPwx433-cgclNYjWM-46" style="edgeStyle=orthogonalEdgeStyle;rounded=0;orthogonalLoop=1;jettySize=auto;html=1;entryX=0;entryY=0.5;entryDx=0;entryDy=0;" parent="1" source="YZ6fPwx433-cgclNYjWM-48" target="YZ6fPwx433-cgclNYjWM-44" edge="1">
          <mxGeometry relative="1" as="geometry" />
        </mxCell>
        <mxCell id="YZ6fPwx433-cgclNYjWM-47" value="nen2660:isDescribedBy" style="edgeLabel;html=1;align=center;verticalAlign=middle;resizable=0;points=[];" parent="YZ6fPwx433-cgclNYjWM-46" vertex="1" connectable="0">
          <mxGeometry x="-0.4194" y="3" relative="1" as="geometry">
            <mxPoint x="40" y="-7" as="offset" />
          </mxGeometry>
        </mxCell>
        <mxCell id="YZ6fPwx433-cgclNYjWM-48" value="&amp;nbsp;FysiekePlaat" style="rounded=0;whiteSpace=wrap;html=1;" parent="1" vertex="1">
          <mxGeometry x="-808" y="733" width="110" height="60" as="geometry" />
        </mxCell>
        <mxCell id="YZ6fPwx433-cgclNYjWM-50" value="&lt;div&gt;&lt;font style=&quot;font-size: 11px;&quot;&gt;*Zie het officiele Informatiemodel Verkeersborden&lt;/font&gt;&lt;/div&gt;&lt;div&gt;&lt;font style=&quot;font-size: 11px;&quot;&gt;schema voor het volledige model&lt;br&gt;&lt;/font&gt;&lt;/div&gt;" style="text;html=1;align=center;verticalAlign=middle;resizable=0;points=[];autosize=1;strokeColor=none;fillColor=none;" parent="1" vertex="1">
          <mxGeometry x="-1089" y="710" width="260" height="40" as="geometry" />
        </mxCell>
        <mxCell id="YZ6fPwx433-cgclNYjWM-51" value="&lt;b&gt;Informatiemodel Verkeersborden*&lt;/b&gt;" style="text;html=1;align=center;verticalAlign=middle;resizable=0;points=[];autosize=1;strokeColor=none;fillColor=none;" parent="1" vertex="1">
          <mxGeometry x="-1049" y="680" width="220" height="30" as="geometry" />
        </mxCell>
        <mxCell id="YZ6fPwx433-cgclNYjWM-52" value="&lt;div&gt;Verkeersborden&lt;/div&gt;&lt;div&gt;Vocabulaire&lt;br&gt;&lt;/div&gt;" style="ellipse;shape=cloud;whiteSpace=wrap;html=1;" parent="1" vertex="1">
          <mxGeometry x="-120" y="719" width="120" height="80" as="geometry" />
        </mxCell>
        <mxCell id="YZ6fPwx433-cgclNYjWM-53" value="&lt;div&gt;Verkeersborden&lt;/div&gt;&lt;div&gt;Kernmodel&lt;br&gt;&lt;/div&gt;" style="ellipse;shape=cloud;whiteSpace=wrap;html=1;" parent="1" vertex="1">
          <mxGeometry x="-120" y="610" width="120" height="80" as="geometry" />
        </mxCell>
        <mxCell id="YZ6fPwx433-cgclNYjWM-58" value="" style="rounded=0;whiteSpace=wrap;html=1;dashed=1;dashPattern=8 8;fillColor=none;" parent="1" vertex="1">
          <mxGeometry x="-828" y="434" width="680" height="190" as="geometry" />
        </mxCell>
        <mxCell id="YZ6fPwx433-cgclNYjWM-59" style="edgeStyle=orthogonalEdgeStyle;rounded=0;orthogonalLoop=1;jettySize=auto;html=1;exitX=1;exitY=0.5;exitDx=0;exitDy=0;entryX=0;entryY=0.5;entryDx=0;entryDy=0;" parent="1" source="YZ6fPwx433-cgclNYjWM-61" target="YZ6fPwx433-cgclNYjWM-62" edge="1">
          <mxGeometry relative="1" as="geometry" />
        </mxCell>
        <mxCell id="YZ6fPwx433-cgclNYjWM-60" value="nen2660:hasPart" style="edgeLabel;html=1;align=center;verticalAlign=middle;resizable=0;points=[];" parent="YZ6fPwx433-cgclNYjWM-59" vertex="1" connectable="0">
          <mxGeometry x="-0.2522" y="-8" relative="1" as="geometry">
            <mxPoint x="12" y="-18" as="offset" />
          </mxGeometry>
        </mxCell>
        <mxCell id="YZ6fPwx433-cgclNYjWM-75" style="edgeStyle=orthogonalEdgeStyle;rounded=0;orthogonalLoop=1;jettySize=auto;html=1;exitX=0.5;exitY=1;exitDx=0;exitDy=0;endArrow=block;endFill=1;endSize=16;" parent="1" source="YZ6fPwx433-cgclNYjWM-61" target="YZ6fPwx433-cgclNYjWM-44" edge="1">
          <mxGeometry relative="1" as="geometry" />
        </mxCell>
        <mxCell id="YZ6fPwx433-cgclNYjWM-61" value="&lt;div&gt;Achtergrondschild&lt;/div&gt;&lt;div&gt;Standaard FysiekePlaat&lt;br&gt;&lt;/div&gt;" style="rounded=0;whiteSpace=wrap;html=1;" parent="1" vertex="1">
          <mxGeometry x="-528" y="493" width="120" height="60" as="geometry" />
        </mxCell>
        <mxCell id="YZ6fPwx433-cgclNYjWM-76" style="edgeStyle=orthogonalEdgeStyle;rounded=0;orthogonalLoop=1;jettySize=auto;html=1;exitX=0.5;exitY=1;exitDx=0;exitDy=0;entryX=0.5;entryY=0;entryDx=0;entryDy=0;endArrow=block;endFill=1;endSize=16;" parent="1" source="YZ6fPwx433-cgclNYjWM-62" target="YZ6fPwx433-cgclNYjWM-45" edge="1">
          <mxGeometry relative="1" as="geometry" />
        </mxCell>
        <mxCell id="YZ6fPwx433-cgclNYjWM-62" value="&lt;div&gt;Icoon&lt;/div&gt;&lt;div&gt;Standaard FysiekePlaat&lt;br&gt;&lt;/div&gt;" style="rounded=0;whiteSpace=wrap;html=1;" parent="1" vertex="1">
          <mxGeometry x="-298" y="493" width="120" height="60" as="geometry" />
        </mxCell>
        <mxCell id="YZ6fPwx433-cgclNYjWM-63" style="edgeStyle=orthogonalEdgeStyle;rounded=0;orthogonalLoop=1;jettySize=auto;html=1;entryX=0;entryY=0.5;entryDx=0;entryDy=0;" parent="1" source="YZ6fPwx433-cgclNYjWM-65" target="YZ6fPwx433-cgclNYjWM-61" edge="1">
          <mxGeometry relative="1" as="geometry" />
        </mxCell>
        <mxCell id="YZ6fPwx433-cgclNYjWM-64" value="nen2660:isDescribedBy" style="edgeLabel;html=1;align=center;verticalAlign=middle;resizable=0;points=[];" parent="YZ6fPwx433-cgclNYjWM-63" vertex="1" connectable="0">
          <mxGeometry x="-0.4194" y="3" relative="1" as="geometry">
            <mxPoint x="23" y="-11" as="offset" />
          </mxGeometry>
        </mxCell>
        <mxCell id="YZ6fPwx433-cgclNYjWM-74" style="edgeStyle=orthogonalEdgeStyle;rounded=0;orthogonalLoop=1;jettySize=auto;html=1;entryX=0.5;entryY=0;entryDx=0;entryDy=0;endArrow=block;endFill=1;endSize=16;" parent="1" source="YZ6fPwx433-cgclNYjWM-65" target="YZ6fPwx433-cgclNYjWM-48" edge="1">
          <mxGeometry relative="1" as="geometry" />
        </mxCell>
        <mxCell id="YZ6fPwx433-cgclNYjWM-65" value="&lt;div&gt;Standaard&lt;/div&gt;&lt;div&gt;FysiekePlaat&lt;/div&gt;" style="rounded=0;whiteSpace=wrap;html=1;" parent="1" vertex="1">
          <mxGeometry x="-808" y="493" width="110" height="60" as="geometry" />
        </mxCell>
        <mxCell id="YZ6fPwx433-cgclNYjWM-67" value="&lt;b&gt;Standaard FysiekePlaten&lt;br&gt;&lt;/b&gt;" style="text;html=1;align=center;verticalAlign=middle;resizable=0;points=[];autosize=1;strokeColor=none;fillColor=none;" parent="1" vertex="1">
          <mxGeometry x="-1010" y="434" width="170" height="30" as="geometry" />
        </mxCell>
        <mxCell id="YZ6fPwx433-cgclNYjWM-69" value="&lt;div&gt;Standaard FysiekePlaten &lt;br&gt;&lt;/div&gt;&lt;div&gt;(Ontologie)&lt;br&gt;&lt;/div&gt;" style="ellipse;shape=cloud;whiteSpace=wrap;html=1;" parent="1" vertex="1">
          <mxGeometry x="-120" y="497" width="120" height="80" as="geometry" />
        </mxCell>
        <mxCell id="YZ6fPwx433-cgclNYjWM-72" style="edgeStyle=orthogonalEdgeStyle;rounded=0;orthogonalLoop=1;jettySize=auto;html=1;exitX=1;exitY=0.5;exitDx=0;exitDy=0;entryX=0.07;entryY=0.4;entryDx=0;entryDy=0;entryPerimeter=0;" parent="1" source="YZ6fPwx433-cgclNYjWM-58" target="YZ6fPwx433-cgclNYjWM-69" edge="1">
          <mxGeometry relative="1" as="geometry" />
        </mxCell>
        <mxCell id="YZ6fPwx433-cgclNYjWM-77" style="edgeStyle=orthogonalEdgeStyle;rounded=0;orthogonalLoop=1;jettySize=auto;html=1;exitX=0.5;exitY=0;exitDx=0;exitDy=0;entryX=0.55;entryY=0.95;entryDx=0;entryDy=0;entryPerimeter=0;" parent="1" source="YZ6fPwx433-cgclNYjWM-65" target="YZ6fPwx433-cgclNYjWM-40" edge="1">
          <mxGeometry relative="1" as="geometry">
            <Array as="points">
              <mxPoint x="-753" y="470" />
              <mxPoint x="-804" y="470" />
            </Array>
          </mxGeometry>
        </mxCell>
        <mxCell id="YZ6fPwx433-cgclNYjWM-78" style="edgeStyle=orthogonalEdgeStyle;rounded=0;orthogonalLoop=1;jettySize=auto;html=1;entryX=0.55;entryY=0.95;entryDx=0;entryDy=0;entryPerimeter=0;" parent="1" source="YZ6fPwx433-cgclNYjWM-65" target="YZ6fPwx433-cgclNYjWM-39" edge="1">
          <mxGeometry relative="1" as="geometry">
            <Array as="points">
              <mxPoint x="-753" y="470" />
              <mxPoint x="-674" y="470" />
            </Array>
          </mxGeometry>
        </mxCell>
        <mxCell id="YZ6fPwx433-cgclNYjWM-79" value="skos:closeMatch" style="edgeLabel;html=1;align=center;verticalAlign=middle;resizable=0;points=[];" parent="YZ6fPwx433-cgclNYjWM-78" vertex="1" connectable="0">
          <mxGeometry x="-0.5737" y="-2" relative="1" as="geometry">
            <mxPoint x="-16" y="-12" as="offset" />
          </mxGeometry>
        </mxCell>
        <mxCell id="YZ6fPwx433-cgclNYjWM-80" value="&lt;div&gt;Verkeersborden&lt;/div&gt;&lt;div&gt;Waardelijsten&lt;br&gt;&lt;/div&gt;" style="ellipse;shape=cloud;whiteSpace=wrap;html=1;" parent="1" vertex="1">
          <mxGeometry x="-120" y="840" width="120" height="80" as="geometry" />
        </mxCell>
        <mxCell id="YZ6fPwx433-cgclNYjWM-87" style="edgeStyle=orthogonalEdgeStyle;rounded=0;orthogonalLoop=1;jettySize=auto;html=1;exitX=1;exitY=0.5;exitDx=0;exitDy=0;entryX=0.13;entryY=0.77;entryDx=0;entryDy=0;entryPerimeter=0;" parent="1" source="YZ6fPwx433-cgclNYjWM-49" target="YZ6fPwx433-cgclNYjWM-53" edge="1">
          <mxGeometry relative="1" as="geometry" />
        </mxCell>
        <mxCell id="YZ6fPwx433-cgclNYjWM-88" style="edgeStyle=orthogonalEdgeStyle;rounded=0;orthogonalLoop=1;jettySize=auto;html=1;entryX=0.25;entryY=0.25;entryDx=0;entryDy=0;entryPerimeter=0;" parent="1" source="YZ6fPwx433-cgclNYjWM-49" target="YZ6fPwx433-cgclNYjWM-80" edge="1">
          <mxGeometry relative="1" as="geometry" />
        </mxCell>
        <mxCell id="YZ6fPwx433-cgclNYjWM-89" style="rounded=0;orthogonalLoop=1;jettySize=auto;html=1;entryX=0.082;entryY=0.505;entryDx=0;entryDy=0;entryPerimeter=0;" parent="1" source="YZ6fPwx433-cgclNYjWM-49" target="YZ6fPwx433-cgclNYjWM-52" edge="1">
          <mxGeometry relative="1" as="geometry" />
        </mxCell>
        <mxCell id="YZ6fPwx433-cgclNYjWM-90" style="edgeStyle=orthogonalEdgeStyle;rounded=0;orthogonalLoop=1;jettySize=auto;html=1;entryX=0.496;entryY=0.114;entryDx=0;entryDy=0;entryPerimeter=0;" parent="1" source="YZ6fPwx433-cgclNYjWM-52" target="YZ6fPwx433-cgclNYjWM-80" edge="1">
          <mxGeometry relative="1" as="geometry" />
        </mxCell>
        <mxCell id="YZ6fPwx433-cgclNYjWM-91" value="rdfs:seeAlso" style="edgeLabel;html=1;align=center;verticalAlign=middle;resizable=0;points=[];" parent="YZ6fPwx433-cgclNYjWM-90" vertex="1" connectable="0">
          <mxGeometry x="-0.1931" y="1" relative="1" as="geometry">
            <mxPoint x="1" y="-1" as="offset" />
          </mxGeometry>
        </mxCell>
        <mxCell id="YZ6fPwx433-cgclNYjWM-92" style="edgeStyle=orthogonalEdgeStyle;rounded=0;orthogonalLoop=1;jettySize=auto;html=1;entryX=0.492;entryY=0.982;entryDx=0;entryDy=0;entryPerimeter=0;exitX=0.501;exitY=0.091;exitDx=0;exitDy=0;exitPerimeter=0;" parent="1" source="YZ6fPwx433-cgclNYjWM-52" target="YZ6fPwx433-cgclNYjWM-53" edge="1">
          <mxGeometry relative="1" as="geometry" />
        </mxCell>
        <mxCell id="YZ6fPwx433-cgclNYjWM-93" value="rdfs:seeAlso" style="edgeLabel;html=1;align=center;verticalAlign=middle;resizable=0;points=[];" parent="YZ6fPwx433-cgclNYjWM-92" vertex="1" connectable="0">
          <mxGeometry x="0.1261" y="2" relative="1" as="geometry">
            <mxPoint as="offset" />
          </mxGeometry>
        </mxCell>
      </root>
    </mxGraphModel>
  </diagram>
</mxfile>
